<svg width="57" height="56" viewBox="0 0 57 56" fill="none" xmlns="http://www.w3.org/2000/svg">
<g clip-path="url(#clip0_211_2294)">
<mask id="path-1-inside-1_211_2294" fill="white">
<path d="M8.77805 38.3948C11.6196 38.3948 13.9314 36.121 13.9314 33.3259C13.9314 30.5304 11.6196 28.2566 8.77805 28.2566C5.9365 28.2566 3.6247 30.53 3.6247 33.3255C3.6247 36.1205 5.9365 38.3948 8.77805 38.3948ZM8.87425 40.2722C4.16483 40.2722 0.333344 44.5006 0.333344 49.6987V53.2949H15.555V51.3272C15.555 49.4291 15.9149 47.5797 16.6253 45.8293L16.6433 45.785L16.6248 45.7403C15.2379 42.4187 12.1954 40.2722 8.87425 40.2722ZM47.8886 38.3948C50.7302 38.3948 53.042 36.121 53.042 33.3259C53.042 30.5304 50.7302 28.2566 47.8886 28.2566C45.0471 28.2566 42.7353 30.5304 42.7353 33.3259C42.7353 36.1205 45.0471 38.3948 47.8886 38.3948ZM47.7924 40.2722C44.4713 40.2722 41.4288 42.4187 40.0419 45.7403L40.0233 45.785L40.0414 45.8293C40.7508 47.5753 41.1143 49.4426 41.1117 51.3272V53.2949H56.3333V49.6987C56.3333 44.5006 52.5019 40.2722 47.7924 40.2722ZM28.3333 39.4403C22.3197 39.4403 17.4273 44.773 17.4273 51.3272V56.0001H39.2398V51.3272C39.2393 44.7725 34.347 39.4403 28.3333 39.4403ZM28.2137 37.5625C31.8934 37.5625 34.8871 34.6487 34.8871 31.0665C34.8871 27.4848 31.893 24.571 28.2137 24.571C24.5344 24.571 21.5402 27.4852 21.5402 31.067C21.5402 34.6487 24.5339 37.5625 28.2137 37.5625ZM29.1115 8.12096V4.13818H27.5548V8.12051C27.5548 8.63534 27.1384 9.05264 26.6253 9.05264H22.7862V10.6884H26.6253C26.7476 10.6885 26.8686 10.7127 26.9815 10.7596C27.0944 10.8065 27.1969 10.8753 27.2832 10.9618C27.3696 11.0484 27.438 11.1511 27.4846 11.2641C27.5311 11.3772 27.555 11.4983 27.5548 11.6205V15.6028H29.1115V11.6205C29.1115 11.1057 29.5279 10.6884 30.0409 10.6884H33.8801V9.05264H30.0409C29.9187 9.05252 29.7977 9.02832 29.6848 8.98143C29.572 8.93454 29.4695 8.86587 29.3832 8.77935C29.2968 8.69283 29.2284 8.59015 29.1818 8.47718C29.1352 8.36421 29.1113 8.24317 29.1115 8.12096Z"/>
</mask>
<path d="M0.333344 53.2949H-1.66666V55.2949H0.333344V53.2949ZM15.555 53.2949V55.2949H17.555V53.2949H15.555ZM16.6253 45.8293L14.7736 45.0735L14.7721 45.0772L16.6253 45.8293ZM16.6433 45.785L18.495 46.5408L18.8058 45.7795L18.4911 45.0198L16.6433 45.785ZM16.6248 45.7403L18.4726 44.975L18.4704 44.9697L16.6248 45.7403ZM40.0419 45.7403L38.1963 44.9697L38.1941 44.975L40.0419 45.7403ZM40.0233 45.785L38.1755 45.0198L37.8609 45.7795L38.1717 46.5408L40.0233 45.785ZM40.0414 45.8293L41.8943 45.0764L41.8931 45.0735L40.0414 45.8293ZM41.1117 51.3272L39.1117 51.3244V51.3272H41.1117ZM41.1117 53.2949H39.1117V55.2949H41.1117V53.2949ZM56.3333 53.2949V55.2949H58.3333V53.2949H56.3333ZM17.4273 56.0001H15.4273V58.0001H17.4273V56.0001ZM39.2398 56.0001V58.0001H41.2398V56.0001H39.2398ZM39.2398 51.3272H41.2398V51.3271L39.2398 51.3272ZM29.1115 8.12096L31.1115 8.12387V8.12096H29.1115ZM29.1115 4.13818H31.1115V2.13818H29.1115V4.13818ZM27.5548 4.13818V2.13818H25.5548V4.13818H27.5548ZM22.7862 9.05264V7.05263H20.7862V9.05264H22.7862ZM22.7862 10.6884H20.7862V12.6884H22.7862V10.6884ZM26.6253 10.6884L26.6273 8.68838H26.6253V10.6884ZM27.5548 11.6205L25.5548 11.6166V11.6205H27.5548ZM27.5548 15.6028H25.5548V17.6028H27.5548V15.6028ZM29.1115 15.6028V17.6028H31.1115V15.6028H29.1115ZM33.8801 10.6884V12.6884H35.8801V10.6884H33.8801ZM33.8801 9.05264H35.8801V7.05263H33.8801V9.05264ZM30.0409 9.05264L30.0389 11.0526H30.0409V9.05264ZM8.77805 40.3948C12.6929 40.3948 15.9314 37.2566 15.9314 33.3259H11.9314C11.9314 34.9853 10.5463 36.3948 8.77805 36.3948V40.3948ZM15.9314 33.3259C15.9314 29.3949 12.693 26.2566 8.77805 26.2566V30.2566C10.5462 30.2566 11.9314 31.6659 11.9314 33.3259H15.9314ZM8.77805 26.2566C4.86335 26.2566 1.6247 29.3943 1.6247 33.3255H5.6247C5.6247 31.6657 7.00966 30.2566 8.77805 30.2566V26.2566ZM1.6247 33.3255C1.6247 37.2559 4.863 40.3948 8.77805 40.3948V36.3948C7.01001 36.3948 5.6247 34.9851 5.6247 33.3255H1.6247ZM8.87425 38.2722C2.87921 38.2722 -1.66666 43.5862 -1.66666 49.6987H2.33334C2.33334 45.415 5.45044 42.2722 8.87425 42.2722V38.2722ZM-1.66666 49.6987V53.2949H2.33334V49.6987H-1.66666ZM0.333344 55.2949H15.555V51.2949H0.333344V55.2949ZM17.555 53.2949V51.3272H13.555V53.2949H17.555ZM17.555 51.3272C17.555 49.6855 17.8656 48.0917 18.4785 46.5814L14.7721 45.0772C13.9642 47.0678 13.555 49.1726 13.555 51.3272H17.555ZM18.477 46.5851L18.495 46.5408L14.7917 45.0292L14.7736 45.0735L18.477 46.5851ZM18.4911 45.0198L18.4726 44.975L14.777 46.5056L14.7955 46.5503L18.4911 45.0198ZM18.4704 44.9697C16.8063 40.9843 13.0864 38.2722 8.87425 38.2722V42.2722C11.3045 42.2722 13.6695 43.8531 14.7792 46.5109L18.4704 44.9697ZM47.8886 40.3948C51.8035 40.3948 55.042 37.2566 55.042 33.3259H51.042C51.042 34.9853 49.6569 36.3948 47.8886 36.3948V40.3948ZM55.042 33.3259C55.042 29.3949 51.8036 26.2566 47.8886 26.2566V30.2566C49.6568 30.2566 51.042 31.6659 51.042 33.3259H55.042ZM47.8886 26.2566C43.9737 26.2566 40.7353 29.3949 40.7353 33.3259H44.7353C44.7353 31.6659 46.1205 30.2566 47.8886 30.2566V26.2566ZM40.7353 33.3259C40.7353 37.256 43.9737 40.3948 47.8886 40.3948V36.3948C46.1205 36.3948 44.7353 34.985 44.7353 33.3259H40.7353ZM47.7924 38.2722C43.5803 38.2722 39.8603 40.9843 38.1963 44.9697L41.8874 46.5109C42.9972 43.8531 45.3622 42.2722 47.7924 42.2722V38.2722ZM38.1941 44.975L38.1755 45.0198L41.8711 46.5503L41.8897 46.5056L38.1941 44.975ZM38.1717 46.5408L38.1897 46.5851L41.8931 45.0735L41.875 45.0292L38.1717 46.5408ZM38.1885 46.5821C38.8004 48.0882 39.114 49.6988 39.1117 51.3244L43.1117 51.33C43.1147 49.1863 42.7012 47.0624 41.8943 45.0764L38.1885 46.5821ZM39.1117 51.3272V53.2949H43.1117V51.3272H39.1117ZM41.1117 55.2949H56.3333V51.2949H41.1117V55.2949ZM58.3333 53.2949V49.6987H54.3333V53.2949H58.3333ZM58.3333 49.6987C58.3333 43.5862 53.7875 38.2722 47.7924 38.2722V42.2722C51.2162 42.2722 54.3333 45.415 54.3333 49.6987H58.3333ZM28.3333 37.4403C21.0564 37.4403 15.4273 43.8341 15.4273 51.3272H19.4273C19.4273 45.7119 23.5829 41.4403 28.3333 41.4403V37.4403ZM15.4273 51.3272V56.0001H19.4273V51.3272H15.4273ZM17.4273 58.0001H39.2398V54.0001H17.4273V58.0001ZM41.2398 56.0001V51.3272H37.2398V56.0001H41.2398ZM41.2398 51.3271C41.2393 43.8335 35.6102 37.4403 28.3333 37.4403V41.4403C33.0838 41.4403 37.2394 45.7115 37.2398 51.3274L41.2398 51.3271ZM28.2137 39.5625C32.9468 39.5625 36.8871 35.8038 36.8871 31.0665H32.8871C32.8871 33.4936 30.8401 35.5625 28.2137 35.5625V39.5625ZM36.8871 31.0665C36.8871 26.3295 32.9461 22.571 28.2137 22.571V26.571C30.8398 26.571 32.8871 28.64 32.8871 31.0665H36.8871ZM28.2137 22.571C23.481 22.571 19.5402 26.3301 19.5402 31.067H23.5402C23.5402 28.6403 25.5877 26.571 28.2137 26.571V22.571ZM19.5402 31.067C19.5402 35.8039 23.4807 39.5625 28.2137 39.5625V35.5625C25.5872 35.5625 23.5402 33.4935 23.5402 31.067H19.5402ZM31.1115 8.12096V4.13818H27.1115V8.12096H31.1115ZM29.1115 2.13818H27.5548V6.13818H29.1115V2.13818ZM25.5548 4.13818V8.12051H29.5548V4.13818H25.5548ZM25.5548 8.12051C25.5548 7.53583 26.0288 7.05263 26.6253 7.05263V11.0526C28.248 11.0526 29.5548 9.73486 29.5548 8.12051H25.5548ZM26.6253 7.05263H22.7862V11.0526H26.6253V7.05263ZM20.7862 9.05264V10.6884H24.7862V9.05264H20.7862ZM22.7862 12.6884H26.6253V8.68838H22.7862V12.6884ZM26.6234 12.6884C26.4828 12.6882 26.3437 12.6604 26.2139 12.6065L27.7491 8.9128C27.3935 8.76501 27.0123 8.68875 26.6273 8.68838L26.6234 12.6884ZM26.2139 12.6065C26.0841 12.5525 25.9662 12.4735 25.867 12.374L28.6995 9.54967C28.4276 9.27699 28.1047 9.06058 27.7491 8.9128L26.2139 12.6065ZM25.867 12.374C25.7677 12.2744 25.6891 12.1563 25.6355 12.0264L29.3336 10.5019C29.1869 10.1459 28.9714 9.82234 28.6995 9.54967L25.867 12.374ZM25.6355 12.0264C25.5819 11.8964 25.5545 11.7572 25.5548 11.6166L29.5548 11.6244C29.5555 11.2393 29.4804 10.8579 29.3336 10.5019L25.6355 12.0264ZM25.5548 11.6205V15.6028H29.5548V11.6205H25.5548ZM27.5548 17.6028H29.1115V13.6028H27.5548V17.6028ZM31.1115 15.6028V11.6205H27.1115V15.6028H31.1115ZM31.1115 11.6205C31.1115 12.2052 30.6375 12.6884 30.0409 12.6884V8.68838C28.4182 8.68838 27.1115 10.0062 27.1115 11.6205H31.1115ZM30.0409 12.6884H33.8801V8.68838H30.0409V12.6884ZM35.8801 10.6884V9.05264H31.8801V10.6884H35.8801ZM33.8801 7.05263H30.0409V11.0526H33.8801V7.05263ZM30.0428 7.05264C30.1833 7.05277 30.3225 7.08059 30.4522 7.13451L28.9175 10.8284C29.2729 10.976 29.654 11.0523 30.0389 11.0526L30.0428 7.05264ZM30.4522 7.13451C30.582 7.18842 30.6999 7.26738 30.7991 7.36686L27.9672 10.1918C28.2391 10.4644 28.562 10.6807 28.9175 10.8284L30.4522 7.13451ZM30.7991 7.36686C30.8983 7.46633 30.977 7.58438 31.0306 7.71429L27.333 9.24008C27.4799 9.59593 27.6954 9.91934 27.9672 10.1918L30.7991 7.36686ZM31.0306 7.71429C31.0842 7.84418 31.1117 7.98336 31.1115 8.12387L27.1115 8.11804C27.1109 8.50297 27.1862 8.88425 27.333 9.24008L31.0306 7.71429Z" fill="#507761" mask="url(#path-1-inside-1_211_2294)"/>
<path d="M28.3334 0C22.9827 0 18.63 4.42806 18.63 9.8709C18.63 15.3137 22.9827 19.7414 28.3334 19.7414C33.6841 19.7414 38.0367 15.3133 38.0367 9.87045C38.0367 4.42761 33.6841 0 28.3334 0ZM34.8095 12.553H30.9708V16.5354C30.9708 17.0502 30.5544 17.4675 30.0414 17.4675H26.6258C26.5036 17.4674 26.3825 17.4432 26.2697 17.3962C26.1568 17.3493 26.0542 17.2806 25.9679 17.194C25.8816 17.1075 25.8132 17.0047 25.7666 16.8917C25.72 16.7787 25.6962 16.6576 25.6964 16.5354V12.553H21.8572C21.735 12.5529 21.614 12.5287 21.5011 12.4818C21.3882 12.4349 21.2857 12.3662 21.1993 12.2796C21.113 12.193 21.0446 12.0903 20.998 11.9773C20.9514 11.8642 20.9276 11.7431 20.9278 11.6209V8.1209C20.9278 7.60606 21.3442 7.18877 21.8572 7.18877H25.6964V3.206C25.6964 2.69116 26.1128 2.27387 26.6258 2.27387H30.0414C30.1636 2.27399 30.2846 2.2982 30.3975 2.34512C30.5104 2.39204 30.6129 2.46075 30.6993 2.54731C30.7856 2.63388 30.854 2.73661 30.9006 2.84963C30.9472 2.96266 30.971 3.08375 30.9708 3.206V7.18832H34.8099C34.9322 7.18844 35.0532 7.21265 35.1661 7.25957C35.279 7.30649 35.3815 7.3752 35.4678 7.46176C35.5541 7.54833 35.6226 7.65106 35.6691 7.76409C35.7157 7.87711 35.7396 7.9982 35.7394 8.12045V11.6205C35.7396 11.8674 35.6418 12.1043 35.4674 12.2792C35.2931 12.4541 35.0564 12.5526 34.8095 12.553Z" fill="#507761"/>
</g>
<defs>
<clipPath id="clip0_211_2294">
<rect width="56" height="56" fill="white" transform="translate(0.333344)"/>
</clipPath>
</defs>
</svg>
