<svg width="56" height="56" viewBox="0 0 56 56" fill="none" xmlns="http://www.w3.org/2000/svg">
<path d="M28.0016 39.9684C27.4035 40.7698 27.4033 40.7697 27.4032 40.7696L27.4027 40.7692L27.4012 40.7681L27.3957 40.764L27.3752 40.7486L27.2972 40.6898C27.2295 40.6386 27.1308 40.5636 27.0056 40.4674C26.7552 40.2752 26.3984 39.9984 25.9706 39.6578C25.1159 38.9776 23.9723 38.0393 22.8237 37.0117C21.68 35.9885 20.5084 34.8566 19.6111 33.7906C19.163 33.2582 18.7644 32.7202 18.4709 32.2026C18.366 32.0177 18.2668 31.8223 18.1829 31.6197C11.4952 32.6429 6.37201 38.4203 6.37201 45.3959C6.37201 47.1394 6.69096 48.3707 7.19961 49.2559C7.70034 50.1273 8.42832 50.7395 9.39292 51.1775C11.4076 52.0924 14.3127 52.2001 17.9238 52.2001C18.3058 52.2001 18.6925 52.199 19.0852 52.1979L19.0998 52.1978C19.4971 52.1967 19.9004 52.1956 20.3083 52.1956H35.6898C36.0972 52.1956 36.5002 52.1967 36.8974 52.1978L36.9115 52.1979C37.3043 52.199 37.6911 52.2001 38.0732 52.2001C41.6849 52.2001 44.591 52.0924 46.6063 51.1775C47.5713 50.7394 48.2996 50.1272 48.8005 49.2558C49.3093 48.3706 49.6284 47.1393 49.6284 45.3959C49.6284 38.4202 44.5063 32.6429 37.8176 31.6192C37.7338 31.8217 37.6347 32.0171 37.5299 32.2019C37.2366 32.7195 36.8381 33.2576 36.3901 33.79C35.4931 34.8561 34.3219 35.988 33.1784 37.0113C32.0302 38.0389 30.8869 38.9773 30.0324 39.6576C29.6047 39.9982 29.248 40.2751 28.9977 40.4673C28.8725 40.5634 28.7738 40.6384 28.7061 40.6897L28.6282 40.7485L28.6076 40.7639L28.6021 40.768L28.6006 40.7691L28.6001 40.7695C28.6 40.7696 28.5999 40.7697 28.0016 39.9684ZM28.0016 39.9684L27.4035 40.7698L28.0017 41.2163L28.5999 40.7697L28.0016 39.9684ZM33.7194 45.4394V45.4396C33.7194 46.3186 34.4793 46.84 35.1679 46.84H36.5994V48.2721C36.5994 48.9638 37.1231 49.7201 37.9999 49.7201H40.3994C41.2756 49.7201 41.7999 48.9633 41.7999 48.2721V46.8406H43.2319C43.9236 46.8406 44.6799 46.3169 44.6799 45.4401V43.0406C44.6799 42.1615 43.9194 41.6401 43.2319 41.6401H41.8004V40.2081C41.8004 39.52 41.28 38.7595 40.4011 38.7595H38.0004C37.1164 38.7595 36.6011 39.5261 36.6011 40.2081V41.6396H35.1685C34.4771 41.6396 33.7201 42.1624 33.7199 43.0398C33.7199 43.0398 33.7199 43.0399 33.7199 43.04L33.7194 45.4394Z" stroke="#507761" stroke-width="2"/>
<path d="M39.4594 15.2533C39.4594 18.4649 38.1419 22.5832 35.9747 25.8965C33.7848 29.2443 30.9334 31.4756 28.0044 31.4756C25.076 31.4756 22.2249 29.2444 20.0352 25.8965C17.8681 22.5832 16.5506 18.4649 16.5506 15.2533C16.5506 8.92828 21.6787 3.80005 28.0044 3.80005C34.3313 3.80005 39.4594 8.92834 39.4594 15.2533Z" stroke="#507761" stroke-width="2"/>
</svg>
