<svg width="12" height="13" viewBox="0 0 12 13" fill="none" xmlns="http://www.w3.org/2000/svg">
<path d="M6.01328 9.5C5.72687 9.49994 5.45221 9.39476 5.24972 9.2076L0.929718 5.21577C0.826567 5.12372 0.74429 5.0136 0.687688 4.89184C0.631086 4.77009 0.601293 4.63914 0.600047 4.50663C0.598801 4.37412 0.626126 4.24271 0.68043 4.12006C0.734733 3.99742 0.814926 3.886 0.916331 3.7923C1.01773 3.69859 1.13832 3.62449 1.27105 3.57432C1.40377 3.52414 1.54599 3.49889 1.68939 3.50004C1.83279 3.50119 1.97451 3.52872 2.10627 3.58102C2.23804 3.63332 2.35721 3.70935 2.45684 3.80466L6.01328 7.09093L9.56972 3.80466C9.77341 3.62288 10.0462 3.52229 10.3294 3.52456C10.6126 3.52684 10.8834 3.63179 11.0837 3.81682C11.2839 4.00185 11.3975 4.25215 11.4 4.51381C11.4024 4.77547 11.2936 5.02756 11.0968 5.21577L6.77684 9.2076C6.57434 9.39476 6.29969 9.49994 6.01328 9.5Z" fill="#1F2A37"/>
</svg>
