<svg width="11" height="11" viewBox="0 0 11 11" fill="none" xmlns="http://www.w3.org/2000/svg">
<g clip-path="url(#clip0_211_2321)">
<path d="M8.85158 6.78505L8.85198 6.78544C8.89631 6.82761 8.91655 6.87962 8.91663 6.92856C8.9167 6.97743 8.89666 7.02941 8.85258 7.07163C8.85254 7.07167 8.8525 7.07172 8.85245 7.07176L5.85694 9.92815L5.85657 9.9285C5.83487 9.94923 5.80774 9.96685 5.77615 9.97917L5.77615 9.97915L5.77182 9.98088C5.74079 9.99331 5.70668 10 5.67168 10C5.63669 10 5.60257 9.99331 5.57154 9.98088L5.57155 9.98086L5.56721 9.97917C5.53563 9.96685 5.50849 9.94923 5.48679 9.9285L5.48643 9.92815L2.49034 7.07122L2.4904 7.07116L2.48402 7.06529C2.46118 7.04426 2.44437 7.02042 2.43331 6.99587C2.42228 6.97138 2.41686 6.946 2.41663 6.92098C2.41641 6.89597 2.42136 6.87057 2.43189 6.84603C2.44245 6.82142 2.45874 6.79743 2.48106 6.77615C2.50343 6.75482 2.53134 6.73673 2.56374 6.72409C2.59618 6.71144 2.6317 6.70481 2.66801 6.70511C2.70433 6.70541 2.73966 6.71263 2.77175 6.72577L2.96128 6.26308L2.77175 6.72577C2.80382 6.73891 2.83126 6.75737 2.85312 6.77895L2.85307 6.77901L2.85936 6.785L4.57686 8.42274L5.42191 9.22855V8.06089V1.21423C5.42191 1.1653 5.44208 1.11326 5.48635 1.07105C5.53142 1.02807 5.59742 1 5.67093 1C5.74445 1 5.81044 1.02807 5.85552 1.07105C5.89979 1.11326 5.91995 1.1653 5.91995 1.21423V8.06089V9.22855L6.765 8.42274L8.48245 6.78505C8.52753 6.74209 8.59352 6.71403 8.66701 6.71403C8.74051 6.71403 8.8065 6.74209 8.85158 6.78505Z" fill="#E02424" stroke="#E02424"/>
</g>
<defs>
<clipPath id="clip0_211_2321">
<rect width="10" height="10" fill="white" transform="translate(0.666626 0.5)"/>
</clipPath>
</defs>
</svg>
