<svg width="24" height="24" viewBox="0 0 24 24" fill="none" xmlns="http://www.w3.org/2000/svg">
<path d="M2.85002 2.4C2.85002 1.32304 3.72307 0.45 4.80002 0.45H14.4C14.4728 0.45 14.5425 0.478896 14.594 0.53033L21.0697 7.00607C21.1211 7.0575 21.15 7.12726 21.15 7.2V21.6C21.15 22.677 20.277 23.55 19.2 23.55H4.80002C3.72307 23.55 2.85002 22.677 2.85002 21.6V2.4Z" stroke="#D0D5DD" stroke-width="0.9"/>
<path d="M14.4 0.300049V4.80005C14.4 6.12553 15.4745 7.20005 16.8 7.20005H21.3" stroke="#D0D5DD" stroke-width="0.9"/>
<g clip-path="url(#clip0_219_2391)">
<path d="M7.13989 11.7H16.8599M7.13989 13.86H16.8599M7.13989 16.02H16.8599M7.13989 18.18H14.6999" stroke="#155EEF" stroke-width="0.9" stroke-linecap="round" stroke-linejoin="round"/>
</g>
<defs>
<clipPath id="clip0_219_2391">
<rect width="10.8" height="10.8" fill="white" transform="translate(6.59998 9)"/>
</clipPath>
</defs>
</svg>
