<svg width="12" height="13" viewBox="0 0 12 13" fill="none" xmlns="http://www.w3.org/2000/svg">
<path d="M10.2667 5.96662H6.53335V2.23328C6.53335 2.09184 6.47716 1.95618 6.37714 1.85616C6.27712 1.75614 6.14146 1.69995 6.00001 1.69995C5.85856 1.69995 5.72291 1.75614 5.62289 1.85616C5.52287 1.95618 5.46668 2.09184 5.46668 2.23328V5.96662H1.73335C1.5919 5.96662 1.45624 6.02281 1.35622 6.12283C1.2562 6.22285 1.20001 6.3585 1.20001 6.49995C1.20001 6.6414 1.2562 6.77706 1.35622 6.87707C1.45624 6.97709 1.5919 7.03328 1.73335 7.03328H5.46668V10.7666C5.46668 10.9081 5.52287 11.0437 5.62289 11.1437C5.72291 11.2438 5.85856 11.3 6.00001 11.3C6.14146 11.3 6.27712 11.2438 6.37714 11.1437C6.47716 11.0437 6.53335 10.9081 6.53335 10.7666V7.03328H10.2667C10.4081 7.03328 10.5438 6.97709 10.6438 6.87707C10.7438 6.77706 10.8 6.6414 10.8 6.49995C10.8 6.3585 10.7438 6.22285 10.6438 6.12283C10.5438 6.02281 10.4081 5.96662 10.2667 5.96662Z" fill="white"/>
</svg>
