<svg width="50" height="50" viewBox="0 0 50 50" fill="none" xmlns="http://www.w3.org/2000/svg">
<path d="M40.8334 16.3103C40.8374 15.1912 40.4207 14.1114 39.666 13.2851C39.6657 13.2847 39.6654 13.2844 39.6651 13.2841L30.5985 3.30648L30.596 3.30374C30.1736 2.84231 29.6601 2.47342 29.0879 2.22035C28.5158 1.96727 27.8975 1.8355 27.2719 1.83333H27.2684H6.00008C4.80661 1.83333 3.66201 2.30744 2.8181 3.15135C1.97419 3.99527 1.50008 5.13986 1.50008 6.33333V43.6667C1.50008 44.8601 1.97419 46.0047 2.8181 46.8486C3.66201 47.6926 4.80661 48.1667 6.00008 48.1667H36.3334C36.3776 48.1667 36.42 48.1842 36.4513 48.2155C36.4825 48.2467 36.5001 48.2891 36.5001 48.3333C36.5001 48.3775 36.4825 48.4199 36.4513 48.4512C36.42 48.4824 36.3776 48.5 36.3334 48.5H6.00128C4.71955 48.4985 3.49076 47.9886 2.58445 47.0823C1.67826 46.1761 1.16843 44.9476 1.16675 43.666V6.33396C1.16843 5.05244 1.67826 3.82388 2.58444 2.9177C3.49063 2.01151 4.71919 1.50169 6.00071 1.5H27.2673C27.9408 1.50162 28.6067 1.64302 29.2228 1.91527C29.8388 2.18745 30.3915 2.58449 30.8461 3.08126C30.8465 3.08163 30.8468 3.08201 30.8472 3.08238L39.9099 13.0584L39.9123 13.061C40.7227 13.9467 41.1704 15.1048 41.1667 16.3053V16.3083V27.94C41.1667 27.9842 41.1492 28.0266 41.1179 28.0578C41.0867 28.0891 41.0443 28.1067 41.0001 28.1067C40.9559 28.1067 40.9135 28.0891 40.8822 28.0579C40.851 28.0266 40.8334 27.9842 40.8334 27.94V16.3103ZM40.8334 16.3103C40.8334 16.311 40.8334 16.3116 40.8334 16.3123L39.8334 16.3083M40.8334 16.3103V16.3083H39.8334M39.8334 16.3083V27.94C39.8334 28.2494 39.9563 28.5462 40.1751 28.765C40.3939 28.9837 40.6907 29.1067 41.0001 29.1067C41.3095 29.1067 41.6062 28.9837 41.825 28.765C42.0438 28.5462 42.1667 28.2494 42.1667 27.94V16.3083L38.9269 13.9587C39.5133 14.6003 39.8369 15.4391 39.8334 16.3083Z" stroke="#507761" stroke-width="2"/>
<path d="M36.3335 16.8333H31.6668C30.7386 16.8333 29.8483 16.4646 29.192 15.8082C28.5356 15.1518 28.1668 14.2616 28.1668 13.3333V2.15666C28.1668 1.84724 28.2897 1.55049 28.5085 1.3317C28.7273 1.11291 29.0241 0.98999 29.3335 0.98999C29.6429 0.98999 29.9397 1.11291 30.1585 1.3317C30.3772 1.55049 30.5002 1.84724 30.5002 2.15666V13.3333C30.5002 13.6427 30.6231 13.9395 30.8419 14.1583C31.0607 14.3771 31.3574 14.5 31.6668 14.5H36.3335C36.6429 14.5 36.9397 14.6229 37.1585 14.8417C37.3772 15.0605 37.5002 15.3572 37.5002 15.6667C37.5002 15.9761 37.3772 16.2728 37.1585 16.4916C36.9397 16.7104 36.6429 16.8333 36.3335 16.8333ZM12.4168 17.4167H8.91683C8.29799 17.4167 7.7045 17.1708 7.26691 16.7332C6.82933 16.2957 6.5835 15.7022 6.5835 15.0833V11.5833C6.5835 10.9645 6.82933 10.371 7.26691 9.93341C7.7045 9.49582 8.29799 9.24999 8.91683 9.24999H12.4168C13.0357 9.24999 13.6292 9.49582 14.0667 9.93341C14.5043 10.371 14.7502 10.9645 14.7502 11.5833V15.0833C14.7502 15.7022 14.5043 16.2957 14.0667 16.7332C13.6292 17.1708 13.0357 17.4167 12.4168 17.4167ZM8.91683 11.5833V15.0833H12.4168V11.5833H8.91683ZM12.4168 29.0833H8.91683C8.29799 29.0833 7.7045 28.8375 7.26691 28.3999C6.82933 27.9623 6.5835 27.3688 6.5835 26.75V23.25C6.5835 22.6311 6.82933 22.0377 7.26691 21.6001C7.7045 21.1625 8.29799 20.9167 8.91683 20.9167H12.4168C13.0357 20.9167 13.6292 21.1625 14.0667 21.6001C14.5043 22.0377 14.7502 22.6311 14.7502 23.25V26.75C14.7502 27.3688 14.5043 27.9623 14.0667 28.3999C13.6292 28.8375 13.0357 29.0833 12.4168 29.0833ZM8.91683 23.25V26.75H12.4168V23.25H8.91683ZM25.8335 28.5H17.6668C17.3574 28.5 17.0607 28.3771 16.8419 28.1583C16.6231 27.9395 16.5002 27.6427 16.5002 27.3333C16.5002 27.0239 16.6231 26.7272 16.8419 26.5084C17.0607 26.2896 17.3574 26.1667 17.6668 26.1667H25.8335C26.1429 26.1667 26.4397 26.2896 26.6585 26.5084C26.8772 26.7272 27.0002 27.0239 27.0002 27.3333C27.0002 27.6427 26.8772 27.9395 26.6585 28.1583C26.4397 28.3771 26.1429 28.5 25.8335 28.5ZM23.5002 23.8333H17.6668C17.3574 23.8333 17.0607 23.7104 16.8419 23.4916C16.6231 23.2728 16.5002 22.9761 16.5002 22.6667C16.5002 22.3572 16.6231 22.0605 16.8419 21.8417C17.0607 21.6229 17.3574 21.5 17.6668 21.5H23.5002C23.8096 21.5 24.1063 21.6229 24.3251 21.8417C24.5439 22.0605 24.6668 22.3572 24.6668 22.6667C24.6668 22.9761 24.5439 23.2728 24.3251 23.4916C24.1063 23.7104 23.8096 23.8333 23.5002 23.8333ZM12.4168 40.75H8.91683C8.29799 40.75 7.7045 40.5042 7.26691 40.0666C6.82933 39.629 6.5835 39.0355 6.5835 38.4167V34.9167C6.5835 34.2978 6.82933 33.7043 7.26691 33.2667C7.7045 32.8292 8.29799 32.5833 8.91683 32.5833H12.4168C13.0357 32.5833 13.6292 32.8292 14.0667 33.2667C14.5043 33.7043 14.7502 34.2978 14.7502 34.9167V38.4167C14.7502 39.0355 14.5043 39.629 14.0667 40.0666C13.6292 40.5042 13.0357 40.75 12.4168 40.75ZM8.91683 34.9167V38.4167H12.4168V34.9167H8.91683ZM25.8335 40.1667H17.6668C17.3574 40.1667 17.0607 40.0437 16.8419 39.825C16.6231 39.6062 16.5002 39.3094 16.5002 39C16.5002 38.6906 16.6231 38.3938 16.8419 38.175C17.0607 37.9562 17.3574 37.8333 17.6668 37.8333H25.8335C26.1429 37.8333 26.4397 37.9562 26.6585 38.175C26.8772 38.3938 27.0002 38.6906 27.0002 39C27.0002 39.3094 26.8772 39.6062 26.6585 39.825C26.4397 40.0437 26.1429 40.1667 25.8335 40.1667ZM23.5002 35.5H17.6668C17.3574 35.5 17.0607 35.3771 16.8419 35.1583C16.6231 34.9395 16.5002 34.6427 16.5002 34.3333C16.5002 34.0239 16.6231 33.7272 16.8419 33.5084C17.0607 33.2896 17.3574 33.1667 17.6668 33.1667H23.5002C23.8096 33.1667 24.1063 33.2896 24.3251 33.5084C24.5439 33.7272 24.6668 34.0239 24.6668 34.3333C24.6668 34.6427 24.5439 34.9395 24.3251 35.1583C24.1063 35.3771 23.8096 35.5 23.5002 35.5ZM25.8335 16.8333H17.6668C17.3574 16.8333 17.0607 16.7104 16.8419 16.4916C16.6231 16.2728 16.5002 15.9761 16.5002 15.6667C16.5002 15.3572 16.6231 15.0605 16.8419 14.8417C17.0607 14.6229 17.3574 14.5 17.6668 14.5H25.8335C26.1429 14.5 26.4397 14.6229 26.6585 14.8417C26.8772 15.0605 27.0002 15.3572 27.0002 15.6667C27.0002 15.9761 26.8772 16.2728 26.6585 16.4916C26.4397 16.7104 26.1429 16.8333 25.8335 16.8333ZM23.5002 12.1667H17.6668C17.3574 12.1667 17.0607 12.0437 16.8419 11.8249C16.6231 11.6062 16.5002 11.3094 16.5002 11C16.5002 10.6906 16.6231 10.3938 16.8419 10.175C17.0607 9.95624 17.3574 9.83332 17.6668 9.83332H23.5002C23.8096 9.83332 24.1063 9.95624 24.3251 10.175C24.5439 10.3938 24.6668 10.6906 24.6668 11C24.6668 11.3094 24.5439 11.6062 24.3251 11.8249C24.1063 12.0437 23.8096 12.1667 23.5002 12.1667ZM36.3335 42.5C36.0241 42.4999 35.7274 42.377 35.5087 42.1582L32.0087 38.6582C31.7961 38.4381 31.6786 38.1434 31.6812 37.8375C31.6839 37.5316 31.8066 37.239 32.0229 37.0227C32.2392 36.8064 32.5318 36.6837 32.8377 36.681C33.1436 36.6784 33.4383 36.796 33.6583 37.0085L36.2553 39.6055L41.272 33.5867C41.3687 33.4648 41.4888 33.3635 41.6252 33.2887C41.7616 33.214 41.9116 33.1672 42.0664 33.1513C42.2211 33.1353 42.3775 33.1505 42.5263 33.1959C42.6751 33.2413 42.8133 33.316 42.9328 33.4156C43.0523 33.5151 43.1507 33.6376 43.2222 33.7758C43.2936 33.914 43.3368 34.0651 43.349 34.2201C43.3612 34.3752 43.3423 34.5312 43.2934 34.6789C43.2444 34.8265 43.1664 34.9629 43.064 35.08L37.2307 42.08C37.1269 42.2046 36.9983 42.3062 36.8531 42.3783C36.7078 42.4504 36.5492 42.4915 36.3872 42.4988L36.3335 42.5Z" fill="#507761"/>
<path d="M37.5002 49.5C35.1927 49.5 32.9371 48.8157 31.0185 47.5338C29.0999 46.2518 27.6046 44.4297 26.7216 42.2979C25.8386 40.1661 25.6075 37.8204 26.0577 35.5572C26.5078 33.2941 27.619 31.2153 29.2506 29.5837C30.8822 27.9521 32.961 26.841 35.2241 26.3908C37.4872 25.9406 39.833 26.1717 41.9648 27.0547C44.0966 27.9377 45.9187 29.4331 47.2007 31.3516C48.4826 33.2702 49.1668 35.5259 49.1668 37.8333C49.1634 40.9264 47.9332 43.8919 45.746 46.0791C43.5588 48.2663 40.5933 49.4966 37.5002 49.5ZM37.5002 28.5C35.6542 28.5 33.8497 29.0474 32.3148 30.0729C30.78 31.0985 29.5837 32.5561 28.8773 34.2616C28.1709 35.967 27.986 37.8437 28.3462 39.6541C28.7063 41.4646 29.5952 43.1277 30.9005 44.433C32.2058 45.7383 33.8688 46.6272 35.6793 46.9873C37.4898 47.3474 39.3664 47.1626 41.0719 46.4562C42.7773 45.7498 44.235 44.5535 45.2606 43.0186C46.2861 41.4838 46.8335 39.6793 46.8335 37.8333C46.8307 35.3588 45.8465 32.9864 44.0968 31.2367C42.347 29.487 39.9747 28.5027 37.5002 28.5Z" fill="#507761"/>
</svg>
