<svg width="48" height="49" viewBox="0 0 48 49" fill="none" xmlns="http://www.w3.org/2000/svg">
<path d="M0 24.5C0 11.2452 10.7452 0.5 24 0.5C37.2548 0.5 48 11.2452 48 24.5C48 37.7548 37.2548 48.5 24 48.5C10.7452 48.5 0 37.7548 0 24.5Z" fill="#DEF7EC"/>
<path d="M21.1554 32.8333C20.829 32.8349 20.515 32.6816 20.2807 32.4062L14.3774 25.4625C14.2598 25.3232 14.1659 25.1572 14.1011 24.974C14.0364 24.7908 14.0021 24.5939 14.0001 24.3946C13.9961 23.992 14.1242 23.6041 14.3562 23.316C14.5882 23.028 14.9051 22.8634 15.2372 22.8586C15.5692 22.8538 15.8893 23.0091 16.1269 23.2903L21.1604 29.2085L31.8722 16.598C32.1102 16.3168 32.4305 16.1617 32.7628 16.1668C33.0951 16.1719 33.4122 16.3368 33.6442 16.6253C33.8762 16.9137 34.0041 17.3021 33.9999 17.7049C33.9957 18.1077 33.8596 18.492 33.6217 18.7732L22.0301 32.4062C21.7958 32.6816 21.4818 32.8349 21.1554 32.8333Z" fill="#0E9F6E"/>
</svg>
